<?xml version="1.0" encoding="UTF-8" standalone="no"?>
<!-- Created with Inkscape (http://www.inkscape.org/) -->

<svg
   xmlns:dc="http://purl.org/dc/elements/1.1/"
   xmlns:cc="http://creativecommons.org/ns#"
   xmlns:rdf="http://www.w3.org/1999/02/22-rdf-syntax-ns#"
   xmlns:svg="http://www.w3.org/2000/svg"
   xmlns="http://www.w3.org/2000/svg"
   xmlns:sodipodi="http://sodipodi.sourceforge.net/DTD/sodipodi-0.dtd"
   xmlns:inkscape="http://www.inkscape.org/namespaces/inkscape"
   width="744.09448819"
   height="1052.3622047"
   id="svg5881"
   version="1.1"
   inkscape:version="0.48.4 r9939"
   sodipodi:docname="New document 23">
  <defs
     id="defs5883" />
  <sodipodi:namedview
     id="base"
     pagecolor="#ffffff"
     bordercolor="#666666"
     borderopacity="1.0"
     inkscape:pageopacity="0.0"
     inkscape:pageshadow="2"
     inkscape:zoom="0.35"
     inkscape:cx="375"
     inkscape:cy="520"
     inkscape:document-units="px"
     inkscape:current-layer="layer1"
     showgrid="false"
     inkscape:window-width="453"
     inkscape:window-height="840"
     inkscape:window-x="490"
     inkscape:window-y="0"
     inkscape:window-maximized="0" />
  <metadata
     id="metadata5886">
    <rdf:RDF>
      <cc:Work
         rdf:about="">
        <dc:format>image/svg+xml</dc:format>
        <dc:type
           rdf:resource="http://purl.org/dc/dcmitype/StillImage" />
        <dc:title></dc:title>
      </cc:Work>
    </rdf:RDF>
  </metadata>
  <g
     inkscape:label="Layer 1"
     inkscape:groupmode="layer"
     id="layer1">
    <path
       style="fill:#471e59;fill-opacity:1;stroke:none;stroke-width:0;marker-start:none"
       d="m 361.0625,7.5405671 c -113.71054,0 -205.90817,93.7513429 -205.90817,209.4222129 0,22.23954 3.46078,43.6396 9.77382,63.74915 -1.3549,0.0633 -2.25142,0.15392 -2.25142,0.21964 0,5.04197 197.56675,768.49753 198.66012,767.68013 1.19486,-0.8931 198.16589,-763.88955 198.16589,-767.62524 0,-0.0682 -0.95146,-0.15392 -2.30621,-0.21963 6.32308,-20.12405 9.77382,-41.54602 9.77382,-63.80405 0,-115.67087 -92.19777,-209.4222129 -205.90785,-209.4222129 z m 0,77.9705099 c 78.91103,0 142.87262,63.992103 142.87262,142.927663 0,78.93552 -63.96159,142.92763 -142.87262,142.92763 -78.91121,0 -142.87281,-63.99211 -142.87281,-142.92763 0,-78.93556 63.9616,-142.927663 142.87281,-142.927663 z m 1.04318,35.306373 c -21.23279,0 -27.23482,2.2654 -27.23482,10.21304 0,3.36803 2.04175,3.62398 26.6857,3.62398 28.5051,0 29.8494,-0.53744 23.6108,-9.44432 -2.83777,-4.0513 -4.62427,-4.3927 -23.06168,-4.3927 z m -0.43927,19.76717 c -61.78981,0 -64.04973,0.12184 -69.13028,4.11817 -5.6478,4.44252 -11.0915,13.5848 -11.0915,18.55918 0,2.71871 9.05002,3.0749 80.22178,3.0749 88.44452,0 80.65794,1.12056 77.09191,-11.31122 -0.68867,-2.40071 -3.95804,-6.62106 -7.24791,-9.38941 l -5.93023,-5.05162 -63.91377,0 z m -68.36145,31.6824 0,74.07199 c 0,43.32809 0.79308,76.15521 1.92172,79.12359 1.06103,2.79087 4.83715,6.83214 8.40109,9.00503 6.03311,3.67842 10.01541,4.00133 57.54444,4.00836 42.47731,0.007 52.06307,-0.5508 57.05021,-3.12982 11.17347,-5.77804 11.58584,-9.21054 11.58584,-89.83079 l 0,-73.24836 -68.2517,0 -68.2516,0 z m 68.91044,20.86534 c 0.50507,-0.0188 1.02352,0.0647 1.42766,0.21964 2.52703,0.9697 2.86565,9.61858 2.41593,61.71751 -0.47413,54.95857 -0.87897,60.64241 -3.89838,61.22331 -6.66728,1.28263 -7.52254,-6.07496 -7.52254,-62.65095 0,-47.06263 0.44959,-55.85259 3.01997,-58.42298 1.2477,-1.24787 3.04256,-2.03007 4.55736,-2.08653 z m -44.20153,1.8669 4.94183,0 4.9417,0 0.54913,58.14844 c 0.37235,41.23851 -0.10595,58.91464 -1.7023,60.83894 -2.81951,3.39738 -7.52031,3.51639 -8.78529,0.21964 -0.52668,-1.37284 -0.72826,-28.74895 -0.43927,-60.83894 l 0.4942,-58.36808 z m 77.2018,0 4.94184,0 4.94184,0 0.49406,59.24662 c 0.40804,46.0614 -0.0293,59.54819 -1.9768,60.78404 -8.80117,5.58671 -9.51424,0.5895 -8.94992,-61.88222 l 0.54898,-58.14844 z"
       id="path4025-1"
       inkscape:connector-curvature="0" />
    <path
       inkscape:connector-curvature="0"
       style="fill:#f4eed7;fill-opacity:1;stroke:none"
       d="m 361.53568,87.471445 c -35.20201,-0.27307 -71.12983,12.957295 -100.11171,42.039915 -55.40116,55.59374 -55.04846,141.99451 0.78431,197.82719 22.03871,22.03884 51.35167,37.3886 77.76288,40.68941 47.52775,5.93991 86.57139,-7.47118 120.58702,-41.38644 33.43092,-33.33225 47.91323,-78.96706 38.99039,-122.72169 C 484.74064,131.3067 424.28703,87.958212 361.53568,87.471445 z m 2.48318,33.022025 c 17.96244,0 21.20642,0.80499 23.82988,5.70698 2.29596,4.29004 2.14344,5.93837 -0.60991,6.79608 -6.41998,1.99992 -25.77778,3.07492 -39.55672,2.17824 -10.79229,-0.70232 -13.37436,-1.87894 -13.37436,-6.05549 0,-7.0434 5.37328,-8.62581 29.71111,-8.62581 z m 65.6084,19.7348 5.83767,7.406 c 8.9764,11.41163 7.62709,16.91226 -4.70498,18.95063 -11.63205,1.92267 -133.50922,1.77565 -143.63267,-0.17426 -3.48545,-0.67131 -6.36058,-2.74669 -6.36058,-4.61785 0,-3.85494 8.04392,-16.30297 12.54662,-19.42985 1.63887,-1.13806 32.98258,-2.06741 69.65999,-2.0911 l 66.65395,-0.0436 z m -137.92576,30.97449 69.18071,0 69.1807,0 0,74.45203 c 0,40.94887 -1.17545,77.55189 -2.61388,81.33525 -1.51593,3.98717 -6.41768,8.23061 -11.67533,10.06344 -8.56988,2.98747 -91.86571,3.90551 -105.81853,1.17624 -3.3236,-0.65011 -8.41084,-3.75548 -11.28332,-6.92678 -4.77037,-5.26643 -5.30472,-12.47073 -6.09906,-82.94714 l -0.87129,-77.15304 z m 69.74705,22.69719 c -0.90172,0.11641 -1.8883,0.58868 -2.87527,1.43764 -1.62514,1.39787 -2.00378,2.48045 -2.57032,7.2753 -0.91324,7.72933 -0.8767,92.55307 0.0436,101.20074 0.40259,3.78316 1.17934,7.97479 1.74258,9.32284 0.84711,2.02739 1.38707,2.48319 3.13666,2.48319 1.84032,0 2.2172,-0.36012 2.87527,-2.65745 1.87382,-6.54162 2.73433,-111.0711 0.95842,-116.70977 -0.54657,-1.73542 -1.80805,-2.54658 -3.31091,-2.35249 z m -43.39049,1.30694 0,59.46578 0,59.46579 1.56833,1.08911 c 0.8607,0.60286 1.84003,1.08912 2.17837,1.08912 1.11177,0 4.62845,-2.36925 5.18413,-3.48517 0.62496,-1.25588 1.21702,-113.59373 0.6099,-116.01274 -0.36483,-1.45337 -0.81121,-1.61189 -4.96637,-1.61189 l -4.57436,0 z m 77.67589,0 -0.47922,32.1943 c -0.87348,60.37528 -0.39651,80.79139 1.96041,86.43231 1.1817,2.8282 2.88531,3.17887 5.35846,1.17625 1.30358,-1.05558 1.66685,-2.28651 2.13467,-7.18817 0.70445,-7.38099 0.79682,-58.06354 0.17426,-89.26402 l -0.43565,-23.35067 -4.35647,0 -4.35646,0 z"
       id="path4394" />
  </g>
</svg>
