<?xml version="1.0" encoding="UTF-8" standalone="no"?>
<!-- Created with Inkscape (http://www.inkscape.org/) -->

<svg
   xmlns:dc="http://purl.org/dc/elements/1.1/"
   xmlns:cc="http://creativecommons.org/ns#"
   xmlns:rdf="http://www.w3.org/1999/02/22-rdf-syntax-ns#"
   xmlns:svg="http://www.w3.org/2000/svg"
   xmlns="http://www.w3.org/2000/svg"
   xmlns:sodipodi="http://sodipodi.sourceforge.net/DTD/sodipodi-0.dtd"
   xmlns:inkscape="http://www.inkscape.org/namespaces/inkscape"
   width="744.09448819"
   height="1052.3622047"
   id="svg4043"
   version="1.1"
   inkscape:version="0.48.4 r9939"
   sodipodi:docname="New document 16">
  <defs
     id="defs4045" />
  <sodipodi:namedview
     id="base"
     pagecolor="#ffffff"
     bordercolor="#666666"
     borderopacity="1.0"
     inkscape:pageopacity="0.0"
     inkscape:pageshadow="2"
     inkscape:zoom="0.35"
     inkscape:cx="375"
     inkscape:cy="520"
     inkscape:document-units="px"
     inkscape:current-layer="layer1"
     showgrid="false"
     inkscape:window-width="1440"
     inkscape:window-height="843"
     inkscape:window-x="0"
     inkscape:window-y="0"
     inkscape:window-maximized="1" />
  <metadata
     id="metadata4048">
    <rdf:RDF>
      <cc:Work
         rdf:about="">
        <dc:format>image/svg+xml</dc:format>
        <dc:type
           rdf:resource="http://purl.org/dc/dcmitype/StillImage" />
        <dc:title></dc:title>
      </cc:Work>
    </rdf:RDF>
  </metadata>
  <g
     inkscape:label="Layer 1"
     inkscape:groupmode="layer"
     id="layer1">
    <path
       style="fill:#aa8800;fill-opacity:1;stroke:#000000;stroke-width:0;stroke-linejoin:bevel;stroke-miterlimit:4;stroke-opacity:1;stroke-dasharray:none;stroke-dashoffset:0;marker-start:none"
       d="m 366.19563,16.64772 c -57.99692,0 -104.99709,47.043354 -104.99709,105.04041 0,43.34729 26.2781,80.55993 63.76061,96.59385 l -37.85773,0 c -48.09323,0 -86.80452,38.71139 -86.80452,86.80453 l 0,67.18254 c 0,9.03201 1.36157,17.76976 3.89827,25.94607 0.94268,13.29083 3.43406,26.1358 7.27702,38.37764 -1.06868,0.0499 -1.77587,0.12142 -1.77587,0.17327 0,3.97744 155.85338,606.24057 156.71595,605.59577 0.94255,-0.7045 156.32619,-602.60551 156.32619,-605.55246 0,-0.0538 -0.75071,-0.12142 -1.81939,-0.17327 3.8449,-12.23686 6.33378,-25.09094 7.27702,-38.37764 2.54738,-8.1916 3.94179,-16.93798 3.94179,-25.98938 l 0,-67.18254 c 0,-48.09314 -38.71142,-86.80453 -86.80452,-86.80453 l -37.85787,0 c 37.48099,-16.03462 63.76061,-53.24773 63.76061,-96.59385 0,-57.997056 -47.0434,-105.04041 -105.04047,-105.04041 z"
       id="path4025"
       inkscape:connector-curvature="0" />
  </g>
</svg>
